# ProBuilder 4.0.5
# https://unity3d.com/unity/features/worldbuilding/probuilder
# 1.09.2020 15:14:21

mtllib ./Curve45Degree.mtl
o Curve45Degree

g Curve45Degree
v 0 0 0
v -0.218097 0.004758809 0
v 0 0 5
v -0.218097 0.004758809 5
v -0.2050112 0.3044734 0
v -3.576281E-08 0.3000002 0
v -0.2050112 0.3044734 5
v -3.576281E-08 0.3000002 5
v -0.4357787 0.01902623 0
v -0.4357787 0.01902623 5
v -0.409632 0.3178849 0
v -0.409632 0.3178849 5
v -0.652631 0.04277556 0
v -0.652631 0.04277556 5
v -0.6134732 0.340209 0
v -0.6134732 0.340209 5
v -0.868241 0.07596102 0
v -0.868241 0.07596102 5
v -0.8161466 0.3714036 0
v -0.8161466 0.3714036 5
v -1.082198 0.1185197 0
v -1.082198 0.1185197 5
v -1.017266 0.4114088 0
v -1.017266 0.4114088 5
v -1.294095 0.1703709 0
v -1.294095 0.1703709 5
v -1.21645 0.4601487 0
v -1.21645 0.4601487 5
v -1.503529 0.2314151 0
v -1.503529 0.2314151 5
v -1.413317 0.5175303 0
v -1.413317 0.5175303 5
v -1.710101 0.3015369 0
v -1.710101 0.3015369 5
v -1.607495 0.583445 0
v -1.607495 0.583445 5
v -1.913418 0.3806022 0
v -1.913418 0.3806022 5
v -1.798612 0.6577662 0
v -1.798612 0.6577662 5
v -2.113092 0.4684608 0
v -2.113092 0.4684608 5
v -1.986306 0.7403535 0
v -1.986306 0.7403535 5
v -2.308743 0.564946 0
v -2.308743 0.564946 5
v -2.170219 0.8310493 0
v -2.170219 0.8310493 5
v -2.5 0.669873 0
v -2.5 0.669873 5
v -2.35 0.9296806 0
v -2.35 0.9296806 5
v -2.686499 0.7830427 0
v -2.686499 0.7830427 5
v -2.525309 1.03606 0
v -2.525309 1.03606 5
v -2.867883 0.9042394 0
v -2.867883 0.9042394 5
v -2.69581 1.149985 0
v -2.69581 1.149985 5
v -3.043808 1.033233 0
v -3.043808 1.033233 5
v -2.861179 1.271239 0
v -2.861179 1.271239 5
v -3.213938 1.169778 0
v -3.213938 1.169778 5
v -3.021102 1.399591 0
v -3.021102 1.399591 5
v -3.377951 1.313613 0
v -3.377951 1.313613 5
v -3.175274 1.534796 0
v -3.175274 1.534796 5
v -3.535534 1.464466 0
v -3.535534 1.464466 5
v -3.323402 1.676598 0
v -3.323402 1.676598 5

vt 0 0
vt 0 0.2181489
vt 5 0
vt 5 0.2181489
vt 0 0.2116042
vt 0 0.006544252
vt -5 0.2116042
vt -5 0.006544252
vt 0 5
vt 0.3000002 5
vt 0.3000002 0
vt 0 0.2179412
vt 0 0.43609
vt 5 0.2179412
vt 5 0.43609
vt 0 0.4295455
vt 0 0.2244856
vt -5 0.4295455
vt -5 0.2244856
vt 0 0.4352598
vt 0 0.6534088
vt 5 0.4352598
vt 5 0.6534088
vt 0 0.6468641
vt 0 0.4418041
vt -5 0.6468641
vt -5 0.4418041
vt 0 0.6515425
vt 0 0.8696914
vt 5 0.6515425
vt 5 0.8696914
vt 0 0.8631473
vt 0 0.6580873
vt -5 0.8631473
vt -5 0.6580873
vt 0 0.8663772
vt 0 1.084526
vt 5 0.8663772
vt 5 1.084526
vt 0 1.077982
vt 0 0.8729217
vt -5 1.077982
vt -5 0.8729217
vt 0 1.079355
vt 0 1.297504
vt 5 1.079355
vt 5 1.297504
vt 0 1.290959
vt 0 1.0859
vt -5 1.290959
vt -5 1.0859
vt 0 1.290071
vt 0 1.50822
vt 5 1.290071
vt 5 1.50822
vt 0 1.501675
vt 0 1.296615
vt -5 1.501675
vt -5 1.296615
vt 0 1.498123
vt 0 1.716272
vt 5 1.498123
vt 5 1.716272
vt 0 1.709727
vt 0 1.504667
vt -5 1.709727
vt -5 1.504667
vt 0 1.703116
vt 0 1.921265
vt 5 1.703116
vt 5 1.921265
vt 0 1.91472
vt -5 1.91472
vt 0 1.904659
vt 0 2.122808
vt 5 1.904659
vt 5 2.122808
vt 0 2.116263
vt 0 1.911204
vt -5 2.116263
vt -5 1.911204
vt 0 2.102368
vt 0 2.320517
vt 5 2.102368
vt 5 2.320517
vt 0 2.313973
vt 0 2.108913
vt -5 2.313973
vt -5 2.108913
vt 0 2.29587
vt 0 2.514019
vt 5 2.29587
vt 5 2.514019
vt 0 2.507474
vt 0 2.302414
vt -5 2.507474
vt -5 2.302414
vt 0 2.484793
vt 0 2.702941
vt 5 2.484793
vt 5 2.702941
vt 0 2.696396
vt 0 2.491336
vt -5 2.696396
vt -5 2.491336
vt 0 2.668778
vt 0 2.886926
vt 5 2.668778
vt 5 2.886926
vt 0 2.880381
vt 0 2.675322
vt -5 2.880381
vt -5 2.675322
vt 0 2.847473
vt 0 3.065622
vt 5 2.847473
vt 5 3.065622
vt 0 3.059078
vt 0 2.854018
vt -5 3.059078
vt -5 2.854018
vt 0 3.020542
vt 0 3.238691
vt 5 3.020542
vt 5 3.238691
vt 0 3.232147
vt 0 3.027087
vt -5 3.232147
vt -5 3.027087
vt 0 3.187654
vt 0 3.405803
vt 5 3.187654
vt 5 3.405803
vt 0 3.399258
vt 0 3.194198
vt -5 3.399258
vt -5 3.194198
vt 0 3.348493
vt 0 3.566642
vt 5 3.348493
vt 5 3.566642
vt 0 3.560096
vt 0 3.355036
vt -5 3.560096
vt -5 3.355036
vt 1.164466 5
vt 1.464466 5
vt 1.164466 0
vt 1.464466 0
vt 0.004758835 0.2180969
vt 0.3044734 0.2050111
vt -0.004758835 0.2180969
vt -0.3044734 0.2050111
vt -0.3000002 0
vt 0.01902628 0.4357787
vt 0.3178849 0.4096319
vt -0.01902628 0.4357787
vt -0.3178849 0.4096319
vt 0.04277563 0.652631
vt 0.340209 0.6134731
vt -0.04277563 0.652631
vt -0.340209 0.6134731
vt 0.07596111 0.8682409
vt 0.3714037 0.8161464
vt -0.07596111 0.8682409
vt -0.3714037 0.8161464
vt 0.1185198 1.082198
vt 0.4114089 1.017266
vt -0.1185198 1.082198
vt -0.4114089 1.017266
vt 0.1703711 1.294095
vt 0.4601488 1.216449
vt -0.1703711 1.294095
vt -0.4601488 1.216449
vt 0.2314153 1.503529
vt 0.5175304 1.413317
vt -0.2314153 1.503529
vt -0.5175304 1.413317
vt 0.301537 1.710101
vt 0.5834451 1.607494
vt -0.301537 1.710101
vt -0.5834451 1.607494
vt 0.3806024 1.913417
vt 0.6577663 1.798612
vt -0.3806024 1.913417
vt -0.6577663 1.798612
vt 0.468461 2.113091
vt 0.7403536 1.986306
vt -0.468461 2.113091
vt -0.7403536 1.986306
vt 0.5649462 2.308743
vt 0.8310494 2.170218
vt -0.5649462 2.308743
vt -0.8310494 2.170218
vt 0.6698732 2.5
vt 0.9296808 2.35
vt -0.6698732 2.5
vt -0.9296808 2.35
vt 0.7830429 2.686498
vt 1.036061 2.525308
vt -0.7830429 2.686498
vt -1.036061 2.525308
vt 0.9042397 2.867882
vt 1.149986 2.695809
vt -0.9042397 2.867882
vt -1.149986 2.695809
vt 1.033233 3.043807
vt 1.27124 2.861179
vt -1.033233 3.043807
vt -1.27124 2.861179
vt 1.169778 3.213938
vt 1.399591 3.021101
vt -1.169778 3.213938
vt -1.399591 3.021101
vt 1.313613 3.377951
vt 1.534797 3.175274
vt -1.313613 3.377951
vt -1.534797 3.175274
vt 1.464466 3.535534
vt 1.676598 3.323402
vt -1.464466 3.535534
vt -1.676598 3.323402

vn -0.0218145 -0.9997622 0
vn 0.02181404 0.9997622 0
vn 1 1.192093E-07 0
vn -0.06540224 -0.9978591 0
vn 0.06540285 0.9978591 0
vn -0.1088675 -0.9940564 0
vn 0.108866 0.9940565 0
vn -0.152123 -0.9883617 0
vn 0.1521246 0.9883614 0
vn -0.1950899 -0.9807855 0
vn 0.1950903 0.9807854 0
vn -0.2376874 -0.9713418 0
vn 0.2376861 0.9713421 0
vn -0.2798284 -0.9600502 0
vn 0.2798286 0.96005 0
vn -0.3214399 -0.9469302 0
vn 0.3214408 0.9469299 0
vn -0.3624372 -0.9320084 0
vn 0.3624366 0.9320086 0
vn -0.4027465 -0.9153118 0
vn 0.4027468 0.9153116 0
vn -0.4422904 -0.896872 0
vn 0.4422898 0.8968723 0
vn -0.4809883 -0.8767272 0
vn 0.4809878 0.8767273 0
vn -0.5187726 -0.8549125 0
vn 0.5187736 0.8549118 0
vn -0.5555695 -0.8314703 0
vn 0.5555697 0.8314701 0
vn -0.5913107 -0.806444 0
vn 0.5913097 0.8064448 0
vn -0.6259238 -0.7798844 0
vn 0.6259236 0.7798846 0
vn -0.659346 -0.7518398 0
vn 0.6593462 0.7518397 0
vn -0.691512 -0.7223652 0
vn 0.6915127 0.7223645 0
vn -0.7071069 0.7071068 0
vn 0 0 1
vn 0 0 -1

g Curve45Degree
usemtl RoadMaterial
f 3/3/1 4/4/1 2/2/1 1/1/1
f 7/7/2 8/8/2 6/6/2 5/5/2
f 1/1/3 6/11/3 8/10/3 3/9/3
f 4/14/4 10/15/4 9/13/4 2/12/4
f 12/18/5 7/19/5 5/17/5 11/16/5
f 10/22/6 14/23/6 13/21/6 9/20/6
f 16/26/7 12/27/7 11/25/7 15/24/7
f 14/30/8 18/31/8 17/29/8 13/28/8
f 20/34/9 16/35/9 15/33/9 19/32/9
f 18/38/10 22/39/10 21/37/10 17/36/10
f 24/42/11 20/43/11 19/41/11 23/40/11
f 22/46/12 26/47/12 25/45/12 21/44/12
f 28/50/13 24/51/13 23/49/13 27/48/13
f 26/54/14 30/55/14 29/53/14 25/52/14
f 32/58/15 28/59/15 27/57/15 31/56/15
f 30/62/16 34/63/16 33/61/16 29/60/16
f 36/66/17 32/67/17 31/65/17 35/64/17
f 34/70/18 38/71/18 37/69/18 33/68/18
f 40/73/19 36/66/19 35/64/19 39/72/19
f 38/76/20 42/77/20 41/75/20 37/74/20
f 44/80/21 40/81/21 39/79/21 43/78/21
f 42/84/22 46/85/22 45/83/22 41/82/22
f 48/88/23 44/89/23 43/87/23 47/86/23
f 46/92/24 50/93/24 49/91/24 45/90/24
f 52/96/25 48/97/25 47/95/25 51/94/25
f 50/100/26 54/101/26 53/99/26 49/98/26
f 56/104/27 52/105/27 51/103/27 55/102/27
f 54/108/28 58/109/28 57/107/28 53/106/28
f 60/112/29 56/113/29 55/111/29 59/110/29
f 58/116/30 62/117/30 61/115/30 57/114/30
f 64/120/31 60/121/31 59/119/31 63/118/31
f 62/124/32 66/125/32 65/123/32 61/122/32
f 68/128/33 64/129/33 63/127/33 67/126/33
f 66/132/34 70/133/34 69/131/34 65/130/34
f 72/136/35 68/137/35 67/135/35 71/134/35
f 70/140/36 74/141/36 73/139/36 69/138/36
f 76/144/37 72/145/37 71/143/37 75/142/37
f 75/148/38 73/149/38 74/147/38 76/146/38
f 8/11/39 7/151/39 4/150/39 3/1/39
f 5/153/40 6/154/40 1/1/40 2/152/40
f 7/151/39 12/156/39 10/155/39 4/150/39
f 11/158/40 5/153/40 2/152/40 9/157/40
f 12/156/39 16/160/39 14/159/39 10/155/39
f 15/162/40 11/158/40 9/157/40 13/161/40
f 16/160/39 20/164/39 18/163/39 14/159/39
f 19/166/40 15/162/40 13/161/40 17/165/40
f 20/164/39 24/168/39 22/167/39 18/163/39
f 23/170/40 19/166/40 17/165/40 21/169/40
f 24/168/39 28/172/39 26/171/39 22/167/39
f 27/174/40 23/170/40 21/169/40 25/173/40
f 28/172/39 32/176/39 30/175/39 26/171/39
f 31/178/40 27/174/40 25/173/40 29/177/40
f 32/176/39 36/180/39 34/179/39 30/175/39
f 35/182/40 31/178/40 29/177/40 33/181/40
f 36/180/39 40/184/39 38/183/39 34/179/39
f 39/186/40 35/182/40 33/181/40 37/185/40
f 40/184/39 44/188/39 42/187/39 38/183/39
f 43/190/40 39/186/40 37/185/40 41/189/40
f 44/188/39 48/192/39 46/191/39 42/187/39
f 47/194/40 43/190/40 41/189/40 45/193/40
f 48/192/39 52/196/39 50/195/39 46/191/39
f 51/198/40 47/194/40 45/193/40 49/197/40
f 52/196/39 56/200/39 54/199/39 50/195/39
f 55/202/40 51/198/40 49/197/40 53/201/40
f 56/200/39 60/204/39 58/203/39 54/199/39
f 59/206/40 55/202/40 53/201/40 57/205/40
f 60/204/39 64/208/39 62/207/39 58/203/39
f 63/210/40 59/206/40 57/205/40 61/209/40
f 64/208/39 68/212/39 66/211/39 62/207/39
f 67/214/40 63/210/40 61/209/40 65/213/40
f 68/212/39 72/216/39 70/215/39 66/211/39
f 71/218/40 67/214/40 65/213/40 69/217/40
f 72/216/39 76/220/39 74/219/39 70/215/39
f 75/222/40 71/218/40 69/217/40 73/221/40

