# ProBuilder 4.0.5
# https://unity3d.com/unity/features/worldbuilding/probuilder
# 1.09.2020 15:21:47

mtllib ./Straight1.mtl
o Straight1

g Straight1
v 0 0 0
v 5.960464E-07 0 -5
v 0 0.3 0
v 5.960464E-07 0.3 -5
v 5.000001 0 -5
v 5.000001 0.3 -5
v 5 0 5.960464E-07
v 5 0.3 5.960464E-07

vt 0 0
vt -5 0
vt 0 0.3
vt -5 0.3
vt 5 0
vt 5 0.3
vt 0 -5
vt 5 -5
vt -5 -5

vn -1 0 -1.192093E-07
vn 1.192093E-07 0 -1
vn 1 0 1.192093E-07
vn -1.192093E-07 0 1
vn 0 1 0
vn 0 -1 0

g Straight1
usemtl RoadMaterial
f 3/3/1 4/4/1 2/2/1 1/1/1
f 4/3/2 6/4/2 5/2/2 2/1/2
f 6/6/3 8/3/3 7/1/3 5/5/3
f 8/6/4 3/3/4 1/1/4 7/5/4
f 8/7/5 6/8/5 4/5/5 3/1/5
f 1/1/6 2/2/6 5/9/6 7/7/6

